<svg xmlns="http://www.w3.org/2000/svg" viewBox="0 0 32 32">
  <defs>
    <linearGradient id="pro-grad" x1="0%" y1="0%" x2="100%" y2="100%">
      <stop offset="0%" style="stop-color:#6366f1;stop-opacity:1" />
      <stop offset="100%" style="stop-color:#a855f7;stop-opacity:1" />
    </linearGradient>
  </defs>
  <!-- Main shape: A sleek rounded rect with a premium drop shadow look -->
  <rect width="30" height="30" x="1" y="1" rx="9" fill="url(#pro-grad)" />
  <!-- Minimal rotation mark -->
  <path 
    d="M16 8c-4.4 0-8 3.6-8 8s3.6 8 8 8c2.2 0 4.2-.9 5.7-2.3l-1.4-1.4c-1.1 1.1-2.6 1.7-4.3 1.7-3.3 0-6-2.7-6-6s2.7-6 6-6c1.7 0 3.2.7 4.3 1.7L18 14h6V8l-2.1 2.1C20.5 8.7 18.4 8 16 8z" 
    fill="white" 
    transform="scale(0.8) translate(4, 4)"
  />
  <!-- Pro dot -->
  <circle cx="24" cy="8" r="2.5" fill="white" />
</svg>